<?xml version="1.0" encoding="UTF-8"?>
<svg xmlns="http://www.w3.org/2000/svg" xmlns:xlink="http://www.w3.org/1999/xlink" version="1.1" id="Capa_1" x="0px" y="0px" viewBox="0 0 511.998 511.998" style="enable-background:new 0 0 511.998 511.998;" xml:space="preserve" width="512" height="512">
<g>
	<circle style="fill:none;stroke:#000000;stroke-width:30;stroke-miterlimit:10;" cx="255.999" cy="46.055" r="31.055"/>
	<circle style="fill:none;stroke:#000000;stroke-width:30;stroke-miterlimit:10;" cx="74.182" cy="151.027" r="31.055"/>
	<circle style="fill:none;stroke:#000000;stroke-width:30;stroke-miterlimit:10;" cx="74.182" cy="360.971" r="31.055"/>
	<circle style="fill:none;stroke:#000000;stroke-width:30;stroke-miterlimit:10;" cx="255.999" cy="465.943" r="31.055"/>
	<circle style="fill:none;stroke:#000000;stroke-width:30;stroke-miterlimit:10;" cx="437.816" cy="360.971" r="31.055"/>
	<circle style="fill:none;stroke:#000000;stroke-width:30;stroke-miterlimit:10;" cx="437.816" cy="151.027" r="31.055"/>
	<line style="fill:none;stroke:#000000;stroke-width:30;stroke-miterlimit:10;" x1="410.922" y1="135.5" x2="282.893" y2="61.582"/>
	<line style="fill:none;stroke:#000000;stroke-width:30;stroke-miterlimit:10;" x1="229.105" y1="61.582" x2="101.076" y2="135.5"/>
	
		<line style="fill:none;stroke:#000000;stroke-width:30;stroke-miterlimit:10;" x1="74.182" y1="182.081" x2="74.182" y2="329.917"/>
	
		<line style="fill:none;stroke:#000000;stroke-width:30;stroke-miterlimit:10;" x1="101.076" y1="376.498" x2="229.105" y2="450.416"/>
	
		<line style="fill:none;stroke:#000000;stroke-width:30;stroke-miterlimit:10;" x1="282.893" y1="450.416" x2="410.922" y2="376.499"/>
	
		<line style="fill:none;stroke:#000000;stroke-width:30;stroke-miterlimit:10;" x1="437.816" y1="329.917" x2="437.816" y2="182.082"/>
	<polygon style="fill:none;stroke:#000000;stroke-width:30;stroke-miterlimit:10;" points="157.121,314.919 157.121,197.079 &#10;&#9;&#9;255.999,140.333 354.877,197.079 354.877,314.919 255.999,371.665 &#9;"/>
	<polyline style="fill:none;stroke:#000000;stroke-width:30;stroke-miterlimit:10;" points="157.121,197.079 255.999,253.824 &#10;&#9;&#9;354.877,197.079 &#9;"/>
	
		<line style="fill:none;stroke:#000000;stroke-width:30;stroke-miterlimit:10;" x1="255.999" y1="253.824" x2="255.999" y2="371.665"/>
</g>















</svg>
