<?xml version="1.0" encoding="UTF-8" standalone="no"?>
<!-- Created with Inkscape (http://www.inkscape.org/) -->

<svg
   version="1.1"
   id="svg3186"
   xml:space="preserve"
   width="682.66669"
   height="682.66669"
   viewBox="0 0 682.66669 682.66669"
   xmlns="http://www.w3.org/2000/svg"
   xmlns:svg="http://www.w3.org/2000/svg"><defs
     id="defs3190"><clipPath
       clipPathUnits="userSpaceOnUse"
       id="clipPath3220"><path
         d="M 0,512 H 512 V 0 H 0 Z"
         id="path3218" /></clipPath></defs><g
     id="g3192"
     transform="matrix(1.3333333,0,0,-1.3333333,0,682.66667)"><g
       id="g3194"
       transform="translate(196,301)"><path
         d="M 0,0 -30,-30"
         style="fill:none;stroke:#000000;stroke-width:30;stroke-linecap:round;stroke-linejoin:round;stroke-miterlimit:10;stroke-dasharray:none;stroke-opacity:1"
         id="path3196" /></g><g
       id="g3198"
       transform="translate(166,271)"><path
         d="M 0,0 30,-30"
         style="fill:none;stroke:#000000;stroke-width:30;stroke-linecap:round;stroke-linejoin:round;stroke-miterlimit:10;stroke-dasharray:none;stroke-opacity:1"
         id="path3200" /></g><g
       id="g3202"
       transform="translate(316,301)"><path
         d="M 0,0 30,-30"
         style="fill:none;stroke:#000000;stroke-width:30;stroke-linecap:round;stroke-linejoin:round;stroke-miterlimit:10;stroke-dasharray:none;stroke-opacity:1"
         id="path3204" /></g><g
       id="g3206"
       transform="translate(346,271)"><path
         d="M 0,0 -30,-30"
         style="fill:none;stroke:#000000;stroke-width:30;stroke-linecap:round;stroke-linejoin:round;stroke-miterlimit:10;stroke-dasharray:none;stroke-opacity:1"
         id="path3208" /></g><g
       id="g3210"
       transform="translate(271,331)"><path
         d="M 0,0 -30,-120"
         style="fill:none;stroke:#000000;stroke-width:30;stroke-linecap:round;stroke-linejoin:round;stroke-miterlimit:10;stroke-dasharray:none;stroke-opacity:1"
         id="path3212" /></g><g
       id="g3214"><g
         id="g3216"
         clip-path="url(#clipPath3220)"><g
           id="g3222"
           transform="translate(406,45)"><path
             d="m 0,0 c 0,-16.568 -13.432,-30 -30,-30 h -240 c -16.568,0 -30,13.432 -30,30 v 422 c 0,16.568 13.432,30 30,30 h 240 c 16.568,0 30,-13.432 30,-30 z"
             style="fill:none;stroke:#000000;stroke-width:30;stroke-linecap:round;stroke-linejoin:round;stroke-miterlimit:10;stroke-dasharray:none;stroke-opacity:1"
             id="path3224" /></g><g
           id="g3226"
           transform="translate(226,75)"><path
             d="M 0,0 H 60"
             style="fill:none;stroke:#000000;stroke-width:30;stroke-linecap:round;stroke-linejoin:round;stroke-miterlimit:10;stroke-dasharray:none;stroke-opacity:1"
             id="path3228" /></g><g
           id="g3230"
           transform="translate(271,437)"><path
             d="m 0,0 c 0,-8.284 -6.716,-15 -15,-15 -8.284,0 -15,6.716 -15,15 0,8.284 6.716,15 15,15 C -6.716,15 0,8.284 0,0"
             style="fill:#000000;fill-opacity:1;fill-rule:nonzero;stroke:none"
             id="path3232" /></g></g></g></g></svg>
