<svg clip-rule="evenodd" fill-rule="evenodd" stroke-linejoin="round" stroke-miterlimit="2" viewBox="0 0 510 510" xmlns="http://www.w3.org/2000/svg"><path d="m146.403 456.215 4.945 8.737c.004.007.007.013.011.02 4.898 8.712 1.791 19.829-6.871 24.721l-19.345 10.965c-.008.004-.016.009-.024.013-8.713 4.898-19.829 1.791-24.724-6.875l-56.888-100.52c-4.943-8.72-1.835-19.848 6.838-24.747l19.368-10.965.007-.004c8.669-4.896 19.79-1.82 24.727 6.849l.011.019 3.901 6.893 49.661-28.752c15.522-8.977 31.398-14.758 48.446-9.222 16.253 5.27 42.785 16.638 69.864 21.531.353.064.701.151 1.042.262 14.278 4.623 22.933 19.073 19.034 33.571-.354 1.321-.777 2.586-1.264 3.793 2.028-.738 4.028-1.677 6.003-2.827l68.979-40.175c25.501-14.856 42.525-13.06 52.149-6.604 8.427 5.654 12.354 15.296 12.102 24.771-.255 9.585-4.856 18.722-12.373 23.351l-125.165 77.063c-13.445 8.298-28.171 10.25-43.427 6.18l-.009-.002-87.594-23.476zm-40.163-70.968 32.282 57.043 12.154-7.018c1.838-1.061 4.022-1.349 6.071-.8l90.789 24.332c10.852 2.895 21.334 1.566 30.897-4.336l.008-.005 125.171-77.067c3.191-1.964 4.66-6.084 4.768-10.152.321-12.049-11.806-20.459-40.202-3.917l-68.978 40.173c-11.298 6.585-23.139 8.413-36.045 6.359-.009-.001-.018-.003-.027-.004l-8.55-1.392c-.004 0-.007-.001-.011-.001-.108-.018-.216-.038-.323-.06-.004-.001-.007-.001-.011-.002-15.589-3.2-30.047-7.908-46.091-12.219-4.264-1.146-6.795-5.538-5.649-9.802s5.538-6.796 9.802-5.65c15.607 4.194 29.677 8.795 44.827 11.93 7.024.76 12.215-2.073 13.832-8.098l.001-.004c1.631-6.065-2.191-11.916-8.066-14.042-27.671-5.094-54.748-16.562-71.36-21.949l-.004-.001c-12.567-4.081-24.052 1.237-35.494 7.854zm-25.698-12.923-.008-.013c-.594-1.025-1.913-1.402-2.945-.82l-19.361 10.961-.007.004c-1.026.58-1.379 1.899-.794 2.93l.002.005 56.891 100.524.003.006c.584 1.033 1.912 1.387 2.95.806l19.326-10.954.01-.006c1.034-.583 1.387-1.912.805-2.951zm-6.264 10.006c4.39-.654 8.467 2.378 9.121 6.769.627 4.39-2.405 8.494-6.795 9.121-4.391.653-8.468-2.405-9.121-6.795-.628-4.391 2.404-8.468 6.795-9.095zm73.524-172.103c-3.39 10.636-13.356 18.348-25.109 18.348-14.542 0-26.347-11.806-26.347-26.348 0-14.541 11.805-26.347 26.347-26.347 11.753 0 21.719 7.712 25.109 18.347h25.742v-6.868c0-3.309 2.038-6.277 5.126-7.466 0 0 14.401-5.543 14.401-5.542 2.183-7.687 5.243-15.069 9.14-22.031l-6.274-14.11c-1.345-3.025-.688-6.566 1.653-8.907l4.872-4.872-18.208-18.208c-9.917 5.123-22.417 3.529-30.728-4.781-10.282-10.283-10.282-26.979 0-37.261 10.283-10.283 26.979-10.283 37.261 0 8.311 8.31 9.904 20.81 4.781 30.728l18.208 18.208 4.858-4.858c2.341-2.34 5.882-2.998 8.907-1.653 0 0 14.11 6.274 14.109 6.275 6.962-3.897 14.341-6.954 22.009-9.12l5.567-14.428c1.191-3.085 4.157-5.12 7.464-5.12h6.883v-25.757c-10.635-3.39-18.347-13.356-18.347-25.109 0-14.541 11.806-26.347 26.347-26.347s26.347 11.806 26.347 26.347c0 11.753-7.712 21.719-18.347 25.109v25.757h6.883c3.312 0 6.281 2.04 7.468 5.131l5.54 14.419c7.665 2.166 15.042 5.222 22.001 9.117l14.11-6.274c3.025-1.345 6.566-.687 8.907 1.653l4.88 4.88 13.299-13.298c-1.877-3.623-2.938-7.736-2.938-12.096 0-14.541 11.806-26.347 26.347-26.347s26.347 11.806 26.347 26.347c0 14.542-11.806 26.348-26.347 26.348-4.359 0-8.472-1.061-12.095-2.938l-13.299 13.298 4.85 4.85c2.338 2.338 2.997 5.874 1.658 8.897 0 0-6.252 14.114-6.252 14.114 3.899 6.965 6.958 14.352 9.124 22.041l14.39 5.538c3.088 1.189 5.126 4.157 5.126 7.466v6.883h19.74c3.39-10.635 13.356-18.347 25.108-18.347 14.542 0 26.348 11.806 26.348 26.347 0 14.542-11.806 26.348-26.348 26.348-11.752 0-21.718-7.712-25.108-18.348h-19.74v6.884c0 3.309-2.038 6.277-5.126 7.466 0 0-14.394 5.54-14.394 5.539-2.17 7.665-5.241 15.043-9.124 22.001l6.256 14.123c1.339 3.023.68 6.559-1.658 8.897l-21.044 21.043c-2.338 2.339-5.873 2.997-8.896 1.658 0 0-14.11-6.25-14.109-6.25-6.949 3.896-14.344 6.954-22.015 9.12l-5.539 14.392c-1.189 3.089-4.157 5.127-7.467 5.127h-29.766c-3.31 0-6.278-2.038-7.467-5.127 0 0-5.538-14.391-5.538-14.391-7.686-2.17-15.07-5.242-22.031-9.127l-14.124 6.256c-3.023 1.339-6.558.681-8.896-1.658l-21.044-21.043c-2.341-2.341-2.998-5.882-1.653-8.907 0 0 6.272-14.106 6.272-14.105-3.894-6.945-6.953-14.336-9.135-22.004l-14.404-5.544c-3.088-1.189-5.126-4.157-5.126-7.466v-6.899zm-14.762-8c0-5.71-4.636-10.347-10.347-10.347s-10.347 4.637-10.347 10.347c0 5.711 4.636 10.348 10.347 10.348s10.347-4.637 10.347-10.348zm158.533-158.532c5.711 0 10.347-4.637 10.347-10.348s-4.636-10.347-10.347-10.347-10.347 4.636-10.347 10.347 4.636 10.348 10.347 10.348zm152.5 158.547c0 5.711 4.637 10.348 10.347 10.348 5.711 0 10.348-4.637 10.348-10.348 0-5.71-4.637-10.347-10.348-10.347-5.71 0-10.347 4.637-10.347 10.347zm-38.003-124.844c-5.711 0-10.347 4.637-10.347 10.347 0 5.711 4.636 10.348 10.347 10.348s10.347-4.637 10.347-10.348c0-5.71-4.636-10.347-10.347-10.347zm-100.067 35.94s-5.043-13.125-5.043-13.125h-18.782l-5.069 13.136c-.949 2.46-3.049 4.294-5.614 4.903-8.883 2.111-17.355 5.621-25.142 10.419-2.248 1.385-5.034 1.572-7.447.499l-12.844-5.711-13.272 13.272 5.711 12.845c1.072 2.412.886 5.199-.5 7.447-4.801 7.792-8.312 16.271-10.452 25.189-.615 2.559-2.449 4.653-4.906 5.599 0 0-13.099 5.041-13.099 5.041v18.781l13.099 5.041c2.455.945 4.289 3.036 4.904 5.594 2.14 8.887 5.648 17.391 10.448 25.153 1.391 2.25 1.58 5.042.506 7.458l-5.711 12.845 13.277 13.278 12.85-5.692c2.403-1.065 5.177-.88 7.419.493 7.791 4.774 16.267 8.316 25.183 10.428 2.57.609 4.674 2.447 5.622 4.911 0 0 5.042 13.1 5.042 13.1h18.78l5.042-13.1c.948-2.462 3.049-4.299 5.616-4.909 8.879-2.11 17.375-5.617 25.131-10.412 2.246-1.389 5.033-1.58 7.447-.511l12.85 5.692 13.283-13.284-5.691-12.849c-1.065-2.404-.881-5.178.493-7.419 4.774-7.793 8.317-16.27 10.429-25.159.61-2.568 2.447-4.669 4.91-5.617 0 0 13.099-5.041 13.099-5.041v-18.781l-13.099-5.041c-2.465-.949-4.302-3.052-4.911-5.622-2.111-8.91-5.62-17.381-10.417-25.166-1.384-2.245-1.572-5.026-.504-7.437l5.691-12.849-13.278-13.278-12.844 5.711c-2.413 1.073-5.199.886-7.447-.499-7.787-4.798-16.259-8.308-25.142-10.419-2.569-.61-4.671-2.449-5.618-4.914zm-14.448 17.33c39.536 0 71.593 32.02 71.593 71.556 0 39.535-32.058 71.593-71.593 71.593-39.537 0-71.557-32.056-71.557-71.593 0-39.538 32.019-71.556 71.557-71.556zm0 16c-30.697 0-55.557 24.859-55.557 55.556 0 30.699 24.858 55.593 55.557 55.593s55.593-24.893 55.593-55.593c0-30.698-24.895-55.556-55.593-55.556zm-33.556 63.295c-3.123-3.122-3.123-8.192 0-11.314 3.122-3.122 8.191-3.122 11.313 0 0 0 10.896 10.896 10.896 10.896l33.908-30.76c3.27-2.967 8.333-2.72 11.3.55 2.966 3.27 2.72 8.334-.55 11.3l-39.552 35.88c-3.16 2.867-8.015 2.749-11.032-.268zm-93.159-134.468c-4.038 4.038-4.038 10.595 0 14.633s10.595 4.038 14.633 0c4.039-4.038 4.039-10.595 0-14.633-4.038-4.039-10.595-4.039-14.633 0z"/></svg>