<?xml version="1.0" encoding="UTF-8" standalone="no"?>
<!-- Created with Inkscape (http://www.inkscape.org/) -->

<svg
   version="1.1"
   id="svg1809"
   xml:space="preserve"
   width="682.66669"
   height="682.66669"
   viewBox="0 0 682.66669 682.66669"
   xmlns="http://www.w3.org/2000/svg"
   xmlns:svg="http://www.w3.org/2000/svg"><defs
     id="defs1813"><clipPath
       clipPathUnits="userSpaceOnUse"
       id="clipPath1823"><path
         d="M 0,512 H 512 V 0 H 0 Z"
         id="path1821" /></clipPath></defs><g
     id="g1815"
     transform="matrix(1.3333333,0,0,-1.3333333,0,682.66667)"><g
       id="g1817"><g
         id="g1819"
         clip-path="url(#clipPath1823)"><g
           id="g1825"
           transform="translate(179.5898,440.6899)"><path
             d="m 0,0 c 2.08,0.87 4.19,1.7 6.31,2.5 5.17,1.93 8.77,6.68 9.34,12.17 l 3.77,35.98 c 0.79,7.48 7.09,13.16 14.61,13.16 h 84.76 c 7.52,0 13.82,-5.68 14.61,-13.16 l 3.77,-35.98 c 0.57,-5.49 4.17,-10.24 9.34,-12.17 20.84,-7.81 40.03,-18.99 56.9,-32.89 4.27,-3.52 10.18,-4.27 15.23,-2.02 l 33.09,14.74 c 6.87,3.06 14.94,0.44 18.7,-6.07 l 42.38,-73.4 c 3.76,-6.51 1.99,-14.81 -4.09,-19.23 l -29.3,-21.27 c -4.47,-3.25 -6.77,-8.73 -5.87,-14.18 1.77,-10.7 2.7,-21.67 2.7,-32.87 0,-11.2 -0.93,-22.17 -2.7,-32.87 -0.9,-5.45 1.4,-10.93 5.87,-14.18 l 29.3,-21.27 c 6.08,-4.42 7.85,-12.72 4.09,-19.23 l -42.38,-73.4 c -3.76,-6.51 -11.83,-9.13 -18.7,-6.07 l -33.09,14.74 c -5.05,2.25 -10.96,1.5 -15.23,-2.02 -16.87,-13.9 -36.06,-25.08 -56.9,-32.89 -5.17,-1.93 -8.77,-6.68 -9.34,-12.17 l -3.77,-35.98 c -0.79,-7.48 -7.09,-13.16 -14.61,-13.16 H 34.03 c -7.52,0 -13.82,5.68 -14.61,13.16 l -3.77,35.98 c -0.57,5.49 -4.17,10.24 -9.34,12.17 -20.84,7.81 -40.03,18.99 -56.9,32.89 -4.27,3.52 -10.18,4.27 -15.23,2.02 l -33.09,-14.74 c -6.87,-3.06 -14.94,-0.44 -18.7,6.07 l -42.38,73.4 c -3.76,6.51 -1.99,14.81 4.09,19.23 l 29.3,21.27 c 4.47,3.25 6.77,8.73 5.87,14.18 -1.77,10.7 -2.7,21.67 -2.7,32.87 0,11.2 0.93,22.17 2.7,32.87 0.9,5.45 -1.4,10.93 -5.87,14.18 l -29.3,21.27 c -6.08,4.42 -7.85,12.72 -4.09,19.23 l 42.38,73.4 c 3.76,6.51 11.83,9.13 18.7,6.07 l 33.09,-14.74 c 5.05,-2.25 10.96,-1.5 15.23,2.02 7.54,6.21 15.54,11.88 23.94,16.94"
             style="fill:none;stroke:#000000;stroke-width:15;stroke-linecap:round;stroke-linejoin:round;stroke-miterlimit:10;stroke-dasharray:none;stroke-opacity:1"
             id="path1827" /></g><g
           id="g1829"
           transform="translate(312.1001,190.1299)"><path
             d="m 0,0 c 6.53,-1.98 13.31,-2.97 20.09,-2.97 17.63,0 35.27,6.71 48.7,20.14 26.85,26.85 26.85,70.55 0,97.4 -26.86,26.85 -70.55,26.85 -97.4,0 L -56.1,87.08 -83.59,114.57 c -26.85,26.85 -70.54,26.85 -97.4,0 -13,-13.01 -20.17,-30.3 -20.17,-48.7 0,-18.4 7.17,-35.69 20.17,-48.7 13.43,-13.43 31.07,-20.14 48.7,-20.14 17.64,0 35.28,6.71 48.7,20.14 l 27.49,27.49 27.49,-27.49 c 1.03,-1.03 2.08,-2.02 3.15,-2.96 M 47.572,38.383 C 32.416,23.228 7.756,23.228 -7.4,38.383 L -34.887,65.87 -7.4,93.357 c 15.155,15.155 39.816,15.156 54.973,-0.001 7.342,-7.341 11.385,-17.103 11.385,-27.486 0,-10.383 -4.044,-20.144 -11.386,-27.487 z m -152.371,10e-4 c -15.157,-15.156 -39.817,-15.157 -54.973,0 -7.342,7.342 -11.386,17.103 -11.386,27.486 0,10.383 4.044,20.145 11.386,27.487 7.578,7.578 17.532,11.367 27.486,11.367 9.954,0 19.909,-3.789 27.487,-11.367 L -77.313,65.87 Z"
             style="fill:none;stroke:#000000;stroke-width:15;stroke-linecap:round;stroke-linejoin:round;stroke-miterlimit:10;stroke-dasharray:none;stroke-opacity:1"
             id="path1831" /></g><g
           id="g1833"
           transform="translate(170.9287,347.6899)"><path
             d="m 0,0 c 22.32,20.72 52.22,33.39 85.07,33.39 32.85,0 62.75,-12.67 85.07,-33.39"
             style="fill:none;stroke:#000000;stroke-width:15;stroke-linecap:round;stroke-linejoin:round;stroke-miterlimit:10;stroke-dasharray:none;stroke-opacity:1"
             id="path1835" /></g><g
           id="g1837"
           transform="translate(170.9287,164.3101)"><path
             d="m 0,0 c 22.32,-20.72 52.22,-33.39 85.07,-33.39 32.85,0 62.75,12.67 85.07,33.39"
             style="fill:none;stroke:#000000;stroke-width:15;stroke-linecap:round;stroke-linejoin:round;stroke-miterlimit:10;stroke-dasharray:none;stroke-opacity:1"
             id="path1839" /></g></g></g></g></svg>
