<?xml version="1.0"?>
<svg xmlns="http://www.w3.org/2000/svg" id="Layer_1" data-name="Layer 1" viewBox="0 0 512 512"><path d="M454,335.75a30.19,30.19,0,0,0-29,22H396.25V327.59a79.9,79.9,0,0,0,0-149.18V165.25H425a30.25,30.25,0,1,0,0-16.5H388a8.26,8.26,0,0,0-8.25,8.25v17a76.23,76.23,0,0,0-33,1.78c-1.61-3.38-3.57-6.55-5.5-9.74v-70l35.51-17.76a30.47,30.47,0,1,0-7.44-14.72l-40,20A8.26,8.26,0,0,0,324.75,91v54.19a109.13,109.13,0,0,0-60.5-30.87V87a30.25,30.25,0,1,0-16.5,0V113l-.25,0a109.06,109.06,0,0,0-60.25,18.08V91a8.26,8.26,0,0,0-4.56-7.38l-40-20a29.83,29.83,0,0,0,.57-5.62,30.52,30.52,0,1,0-8,20.34L170.75,96.1v48.34a110,110,0,0,0-28.29,46.43A83.62,83.62,0,0,1,211.05,273a11.78,11.78,0,0,1-23.55,0A60,60,0,0,0,132,213.23a7.25,7.25,0,0,0,.25-1.23V157a8.26,8.26,0,0,0-8.25-8.25H87a30.25,30.25,0,1,0,0,16.5h28.79V212a8.07,8.07,0,0,0,.42,2.1A60,60,0,0,0,116,331.87a7.07,7.07,0,0,0-.23,1.13v35.75H87a30.25,30.25,0,1,0,0,16.5h37a8.26,8.26,0,0,0,8.25-8.25V333h38.5v82.9l-35.51,17.76a30.47,30.47,0,1,0,7.44,14.72l40-20a8.26,8.26,0,0,0,4.56-7.38V333h60.5v92a30.25,30.25,0,1,0,16.5,0V333h60.5v88a8.26,8.26,0,0,0,4.56,7.38l40,20a29.83,29.83,0,0,0-.57,5.62,30.52,30.52,0,1,0,8-20.34L341.25,415.9V333H367.5a81,81,0,0,0,12.25-1v34a8.26,8.26,0,0,0,8.25,8.25h37a30.19,30.19,0,1,0,29-38.5Zm0-192.5A13.75,13.75,0,1,1,440.25,157,13.77,13.77,0,0,1,454,143.25Zm-55-99A13.75,13.75,0,1,1,385.25,58,13.77,13.77,0,0,1,399,44.25ZM113,71.75A13.75,13.75,0,1,1,126.75,58,13.77,13.77,0,0,1,113,71.75Zm-55,99A13.75,13.75,0,1,1,71.75,157,13.77,13.77,0,0,1,58,170.75Zm0,220A13.75,13.75,0,1,1,71.75,377,13.77,13.77,0,0,1,58,390.75Zm55,77A13.75,13.75,0,1,1,126.75,454,13.77,13.77,0,0,1,113,467.75ZM269.75,454A13.75,13.75,0,1,1,256,440.25,13.77,13.77,0,0,1,269.75,454ZM256,71.75A13.75,13.75,0,1,1,269.75,58,13.77,13.77,0,0,1,256,71.75Zm143,368.5A13.75,13.75,0,1,1,385.25,454,13.77,13.77,0,0,1,399,440.25Zm55-60.5A13.75,13.75,0,1,1,467.75,366,13.77,13.77,0,0,1,454,379.75Z"/></svg>
